<?xml version="1.0" encoding="UTF-8"?>
<svg xmlns="http://www.w3.org/2000/svg" xmlns:xlink="http://www.w3.org/1999/xlink" width="62px" height="62px" viewBox="0 0 62 62" version="1.1">
<g id="surface1">
<path style=" stroke:none;fill-rule:nonzero;fill:rgb(0%,0%,0%);fill-opacity:1;" d="M 29.691406 13.246094 C 29.507812 13.34375 29.265625 13.578125 29.167969 13.765625 C 28.996094 14.09375 28.996094 14.492188 29.128906 15.6875 C 29.144531 15.855469 29.046875 15.910156 28.585938 16.039062 C 28.0625 16.164062 28.011719 16.195312 28.011719 16.453125 L 28.011719 16.726562 L 25.308594 16.726562 C 22.734375 16.726562 22.585938 16.734375 22.417969 16.921875 C 22.21875 17.140625 22.152344 17.105469 23.21875 17.40625 C 23.832031 17.589844 24.203125 17.617188 26.074219 17.617188 C 27.714844 17.617188 28.207031 17.648438 28.207031 17.742188 C 28.207031 17.921875 28.910156 23.671875 28.964844 23.902344 C 28.980469 24.015625 29.351562 24.332031 29.78125 24.613281 C 30.328125 24.976562 30.554688 25.082031 30.523438 24.960938 C 30.507812 24.871094 30.21875 23.386719 29.894531 21.675781 C 29.5625 19.964844 29.207031 18.109375 29.101562 17.582031 C 28.996094 17.042969 28.910156 16.589844 28.917969 16.566406 C 29 16.492188 30.492188 16.164062 30.523438 16.21875 C 30.546875 16.25 30.589844 16.429688 30.636719 16.597656 C 30.734375 17.097656 30.910156 17.007812 30.839844 16.5 L 30.773438 16.074219 L 31.824219 15.816406 L 32.863281 15.566406 L 32.921875 15.824219 C 33.003906 16.25 33.050781 16.332031 33.148438 16.332031 C 33.21875 16.332031 33.226562 16.164062 33.195312 15.910156 L 33.132812 15.476562 L 33.960938 15.296875 L 34.785156 15.105469 L 34.382812 14.925781 C 34.027344 14.757812 33.664062 14.75 33.15625 14.910156 C 33.050781 14.933594 32.921875 14.757812 32.726562 14.304688 C 32.378906 13.507812 32.03125 13.238281 31.324219 13.191406 C 31.0625 13.175781 30.652344 13.144531 30.433594 13.109375 C 30.160156 13.078125 29.941406 13.109375 29.691406 13.246094 Z M 30.636719 13.367188 C 30.667969 13.410156 30.589844 13.59375 30.484375 13.738281 C 30.25 14.054688 30.199219 14.5625 30.320312 15.203125 L 30.394531 15.597656 L 29.917969 15.703125 C 29.660156 15.765625 29.433594 15.808594 29.417969 15.796875 C 29.328125 15.703125 29.199219 14.449219 29.238281 14.191406 C 29.296875 13.894531 29.691406 13.441406 29.992188 13.335938 C 30.234375 13.246094 30.5625 13.253906 30.636719 13.367188 Z M 32.023438 13.625 C 32.234375 13.757812 32.542969 14.304688 32.703125 14.804688 C 32.761719 14.992188 32.726562 15.039062 32.414062 15.082031 C 32.21875 15.121094 32 15.175781 31.929688 15.203125 C 31.839844 15.234375 31.75 15.007812 31.636719 14.464844 C 31.546875 14.023438 31.421875 13.636719 31.378906 13.609375 C 31.316406 13.570312 31.28125 13.5 31.28125 13.441406 C 31.28125 13.3125 31.710938 13.410156 32.023438 13.625 Z M 31.152344 13.675781 C 31.28125 13.835938 31.445312 14.378906 31.523438 14.910156 L 31.582031 15.304688 L 31.105469 15.410156 C 30.847656 15.46875 30.621094 15.507812 30.613281 15.5 C 30.589844 15.476562 30.546875 15.273438 30.507812 15.039062 C 30.410156 14.507812 30.492188 14.015625 30.734375 13.757812 C 30.9375 13.53125 31.023438 13.507812 31.152344 13.675781 Z M 31.152344 13.675781 "/>
<path style=" stroke:none;fill-rule:nonzero;fill:rgb(0%,0%,0%);fill-opacity:1;" d="M 35.238281 16.863281 C 35.238281 16.9375 35.269531 17.140625 35.296875 17.308594 L 35.367188 17.617188 L 38.007812 17.617188 C 40.429688 17.617188 40.65625 17.625 40.808594 17.792969 C 40.960938 17.953125 40.976562 18.398438 40.996094 21.578125 L 41.027344 25.179688 L 41.445312 25.300781 L 41.867188 25.429688 L 41.867188 21.265625 C 41.867188 17.261719 41.859375 17.113281 41.671875 16.921875 C 41.480469 16.734375 41.332031 16.726562 38.355469 16.726562 C 35.769531 16.726562 35.238281 16.75 35.238281 16.863281 Z M 35.238281 16.863281 "/>
<path style=" stroke:none;fill-rule:nonzero;fill:rgb(0%,0%,0%);fill-opacity:1;" d="M 22.554688 18.019531 C 22.378906 18.097656 22.273438 18.226562 22.226562 18.429688 C 22.199219 18.59375 22.167969 20.996094 22.167969 23.757812 C 22.167969 28.398438 22.183594 28.789062 22.347656 28.980469 C 22.515625 29.191406 22.554688 29.191406 31.976562 29.222656 C 41.171875 29.25 41.453125 29.238281 41.65625 29.0625 C 41.859375 28.882812 41.867188 28.773438 41.867188 27.300781 C 41.867188 25.847656 41.859375 25.726562 41.703125 25.769531 C 41.601562 25.800781 41.398438 25.851562 41.253906 25.890625 C 40.992188 25.953125 40.976562 25.976562 40.976562 26.6875 C 40.976562 27.320312 40.945312 27.429688 40.753906 27.554688 C 40.558594 27.691406 39.574219 27.714844 32.023438 27.714844 C 24.46875 27.714844 23.476562 27.691406 23.28125 27.554688 L 23.0625 27.40625 L 23.0625 22.660156 C 23.0625 18.921875 23.03125 17.914062 22.941406 17.921875 C 22.871094 17.921875 22.699219 17.976562 22.554688 18.019531 Z M 32.25 28.480469 C 32.292969 28.644531 31.992188 28.757812 31.847656 28.625 C 31.792969 28.5625 31.78125 28.480469 31.824219 28.402344 C 31.90625 28.269531 32.1875 28.320312 32.25 28.480469 Z M 32.25 28.480469 "/>
<path style=" stroke:none;fill-rule:nonzero;fill:rgb(0%,0%,0%);fill-opacity:1;" d="M 21.3125 31.703125 L 19.914062 33.800781 L 26.003906 33.832031 C 29.351562 33.839844 34.800781 33.839844 38.105469 33.832031 L 44.132812 33.800781 L 42.730469 31.71875 L 41.316406 29.644531 L 32.007812 29.621094 L 22.710938 29.605469 Z M 21.3125 31.703125 "/>
<path style=" stroke:none;fill-rule:nonzero;fill:rgb(0%,0%,0%);fill-opacity:1;" d="M 30.089844 34.542969 C 30.089844 34.601562 28.296875 34.65625 25.074219 34.664062 L 20.039062 34.695312 L 20.8125 35.285156 L 31.664062 35.3125 C 37.628906 35.335938 42.699219 35.3125 42.933594 35.285156 C 43.214844 35.246094 43.480469 35.117188 43.675781 34.941406 L 43.996094 34.65625 L 38.976562 34.640625 C 35.691406 34.640625 33.953125 34.609375 33.953125 34.542969 C 33.953125 34.480469 33.242188 34.445312 32.023438 34.445312 C 30.8125 34.445312 30.089844 34.480469 30.089844 34.542969 Z M 30.089844 34.542969 "/>
<path style=" stroke:none;fill-rule:nonzero;fill:rgb(0%,0%,0%);fill-opacity:1;" d="M 17.019531 43.996094 L 17.019531 46.320312 L 20.398438 46.320312 L 20.367188 45.796875 L 20.34375 45.28125 L 19.382812 45.25 L 18.40625 45.222656 L 18.40625 41.671875 L 17.019531 41.671875 Z M 17.019531 43.996094 "/>
<path style=" stroke:none;fill-rule:nonzero;fill:rgb(0%,0%,0%);fill-opacity:1;" d="M 22.09375 43.917969 C 21.699219 45.160156 21.371094 46.203125 21.378906 46.242188 C 21.378906 46.296875 21.683594 46.320312 22.070312 46.320312 L 22.757812 46.320312 L 22.863281 45.894531 C 22.925781 45.667969 22.992188 45.417969 23.015625 45.351562 C 23.046875 45.265625 23.25 45.234375 23.726562 45.25 L 24.398438 45.28125 L 24.535156 45.796875 L 24.671875 46.320312 L 25.40625 46.320312 C 25.960938 46.320312 26.132812 46.296875 26.101562 46.191406 C 26.082031 46.136719 25.753906 45.085938 25.375 43.867188 L 24.695312 41.671875 L 22.8125 41.671875 Z M 23.992188 43.472656 C 24.21875 44.441406 24.21875 44.441406 23.703125 44.441406 C 23.4375 44.441406 23.257812 44.386719 23.257812 44.335938 C 23.257812 44.054688 23.695312 42.664062 23.757812 42.730469 C 23.792969 42.769531 23.902344 43.101562 23.992188 43.472656 Z M 23.992188 43.472656 "/>
<path style=" stroke:none;fill-rule:nonzero;fill:rgb(0%,0%,0%);fill-opacity:1;" d="M 27.421875 43.988281 L 27.421875 46.320312 L 28.804688 46.320312 L 28.804688 44.738281 L 29.621094 44.738281 C 30.070312 44.738281 30.546875 44.675781 30.683594 44.609375 C 31.234375 44.335938 31.492188 43.078125 31.136719 42.382812 C 30.847656 41.832031 30.515625 41.730469 28.882812 41.6875 L 27.421875 41.648438 Z M 29.683594 42.664062 C 29.910156 42.777344 30.039062 43.382812 29.894531 43.648438 C 29.804688 43.804688 29.683594 43.851562 29.296875 43.851562 L 28.804688 43.851562 L 28.804688 42.558594 L 29.160156 42.558594 C 29.351562 42.558594 29.585938 42.601562 29.683594 42.664062 Z M 29.683594 42.664062 "/>
<path style=" stroke:none;fill-rule:nonzero;fill:rgb(0%,0%,0%);fill-opacity:1;" d="M 32.363281 42.164062 L 32.363281 42.664062 L 33.648438 42.664062 L 33.671875 44.464844 L 33.703125 46.273438 L 35.140625 46.332031 L 35.140625 42.664062 L 36.425781 42.664062 L 36.425781 41.671875 L 32.363281 41.671875 Z M 32.363281 42.164062 "/>
<path style=" stroke:none;fill-rule:nonzero;fill:rgb(0%,0%,0%);fill-opacity:1;" d="M 38.644531 41.90625 C 37.789062 42.300781 37.441406 43.0625 37.53125 44.34375 C 37.621094 45.59375 38.210938 46.210938 39.460938 46.371094 C 40.300781 46.476562 41.058594 46.273438 41.527344 45.789062 C 42.042969 45.28125 42.195312 44.765625 42.148438 43.699219 C 42.125 43.019531 42.074219 42.828125 41.835938 42.472656 C 41.453125 41.890625 40.945312 41.671875 39.9375 41.671875 C 39.316406 41.671875 39.039062 41.71875 38.644531 41.90625 Z M 40.363281 42.761719 C 40.625 43.003906 40.71875 43.488281 40.65625 44.367188 C 40.621094 44.867188 40.550781 45.109375 40.414062 45.25 C 40.140625 45.523438 39.628906 45.523438 39.363281 45.242188 C 39.167969 45.046875 39.144531 44.925781 39.144531 43.933594 C 39.144531 42.964844 39.167969 42.828125 39.332031 42.699219 C 39.613281 42.503906 40.113281 42.535156 40.363281 42.761719 Z M 40.363281 42.761719 "/>
<path style=" stroke:none;fill-rule:nonzero;fill:rgb(0%,0%,0%);fill-opacity:1;" d="M 43.746094 43.988281 L 43.746094 46.320312 L 45.136719 46.320312 L 45.136719 44.738281 L 45.953125 44.738281 C 46.402344 44.738281 46.878906 44.675781 47.015625 44.609375 C 47.566406 44.335938 47.824219 43.078125 47.46875 42.382812 C 47.195312 41.835938 46.847656 41.730469 45.214844 41.6875 L 43.746094 41.648438 Z M 46.054688 42.707031 C 46.273438 42.921875 46.347656 43.40625 46.21875 43.640625 C 46.136719 43.804688 46.023438 43.851562 45.628906 43.851562 L 45.136719 43.851562 L 45.136719 42.558594 L 45.523438 42.558594 C 45.734375 42.558594 45.976562 42.632812 46.054688 42.707031 Z M 46.054688 42.707031 "/>
<path style=" stroke:none;fill-rule:nonzero;fill:rgb(0%,0%,0%);fill-opacity:1;" d="M 24.398438 48.25 C 23.902344 48.742188 24.203125 49.496094 24.871094 49.480469 L 25.1875 49.46875 L 24.863281 49.390625 C 24.460938 49.300781 24.378906 49.226562 24.300781 48.875 C 24.203125 48.5 24.636719 48.050781 25.019531 48.140625 C 25.21875 48.195312 25.246094 48.179688 25.140625 48.105469 C 24.890625 47.945312 24.65625 47.984375 24.398438 48.25 Z M 24.398438 48.25 "/>
<path style=" stroke:none;fill-rule:nonzero;fill:rgb(0%,0%,0%);fill-opacity:1;" d="M 26.882812 48.210938 C 26.390625 48.597656 26.648438 49.488281 27.261719 49.488281 C 27.941406 49.488281 28.269531 48.617188 27.753906 48.210938 C 27.601562 48.097656 27.421875 48.007812 27.320312 48.007812 C 27.214844 48.007812 27.035156 48.097656 26.882812 48.210938 Z M 27.746094 48.40625 C 28.175781 49.003906 27.433594 49.710938 26.921875 49.195312 C 26.664062 48.9375 26.664062 48.558594 26.929688 48.292969 C 27.191406 48.035156 27.496094 48.082031 27.746094 48.40625 Z M 27.746094 48.40625 "/>
<path style=" stroke:none;fill-rule:nonzero;fill:rgb(0%,0%,0%);fill-opacity:1;" d="M 40.445312 48.210938 C 39.929688 48.617188 40.21875 49.488281 40.875 49.488281 C 41.042969 49.488281 41.171875 49.453125 41.171875 49.398438 C 41.171875 49.359375 41.066406 49.339844 40.9375 49.359375 C 40.640625 49.421875 40.285156 49.097656 40.285156 48.761719 C 40.285156 48.429688 40.648438 48.074219 40.9375 48.132812 C 41.066406 48.148438 41.140625 48.132812 41.117188 48.097656 C 41.027344 47.945312 40.71875 47.992188 40.445312 48.210938 Z M 40.445312 48.210938 "/>
<path style=" stroke:none;fill-rule:nonzero;fill:rgb(0%,0%,0%);fill-opacity:1;" d="M 19.996094 48.792969 L 19.996094 49.488281 L 20.472656 49.480469 L 20.933594 49.460938 L 20.539062 49.398438 C 20.199219 49.351562 20.140625 49.300781 20.109375 49.074219 C 20.085938 48.847656 20.125 48.808594 20.410156 48.761719 L 20.738281 48.726562 L 20.398438 48.71875 C 20.09375 48.695312 20.070312 48.679688 20.109375 48.398438 C 20.140625 48.234375 20.125 48.105469 20.070312 48.105469 C 20.035156 48.105469 19.996094 48.40625 19.996094 48.792969 Z M 19.996094 48.792969 "/>
<path style=" stroke:none;fill-rule:nonzero;fill:rgb(0%,0%,0%);fill-opacity:1;" d="M 29.507812 48.742188 C 29.492188 49.097656 29.53125 49.398438 29.59375 49.4375 C 29.652344 49.480469 29.691406 49.300781 29.691406 48.921875 L 29.691406 48.355469 L 30.191406 48.945312 L 30.425781 48.65625 L 30.675781 48.363281 L 30.710938 48.953125 L 30.742188 49.535156 L 30.765625 48.816406 C 30.773438 48.429688 30.765625 48.105469 30.734375 48.105469 C 30.710938 48.105469 30.582031 48.261719 30.449219 48.460938 L 30.207031 48.816406 L 29.933594 48.460938 C 29.773438 48.261719 29.613281 48.105469 29.585938 48.105469 C 29.554688 48.105469 29.515625 48.390625 29.507812 48.742188 Z M 29.507812 48.742188 "/>
<path style=" stroke:none;fill-rule:nonzero;fill:rgb(0%,0%,0%);fill-opacity:1;" d="M 32.484375 48.792969 L 32.492188 49.535156 L 32.613281 48.355469 L 32.871094 48.679688 L 33.125 49.011719 L 33.292969 48.753906 C 33.542969 48.371094 33.640625 48.4375 33.679688 49.011719 C 33.710938 49.46875 33.726562 49.4375 33.730469 48.816406 C 33.738281 48.429688 33.726562 48.105469 33.679688 48.105469 C 33.632812 48.105469 33.496094 48.261719 33.367188 48.460938 L 33.117188 48.816406 L 32.800781 48.429688 L 32.476562 48.050781 Z M 32.484375 48.792969 "/>
<path style=" stroke:none;fill-rule:nonzero;fill:rgb(0%,0%,0%);fill-opacity:1;" d="M 35.351562 48.761719 L 35.382812 49.4375 L 35.828125 49.453125 C 36.214844 49.460938 36.230469 49.460938 35.910156 49.421875 C 35.570312 49.382812 35.535156 49.351562 35.535156 49.097656 C 35.535156 48.855469 35.585938 48.808594 35.8125 48.761719 L 36.078125 48.726562 L 35.789062 48.710938 C 35.535156 48.695312 35.511719 48.664062 35.554688 48.398438 C 35.585938 48.195312 35.554688 48.105469 35.464844 48.105469 C 35.351562 48.105469 35.335938 48.261719 35.351562 48.761719 Z M 35.351562 48.761719 "/>
<path style=" stroke:none;fill-rule:nonzero;fill:rgb(0%,0%,0%);fill-opacity:1;" d="M 37.714844 48.742188 C 37.714844 49.097656 37.757812 49.40625 37.8125 49.4375 C 37.871094 49.480469 37.910156 49.367188 37.910156 49.203125 C 37.910156 48.761719 38.289062 48.777344 38.53125 49.203125 C 38.628906 49.382812 38.726562 49.488281 38.757812 49.460938 C 38.789062 49.429688 38.742188 49.292969 38.644531 49.140625 C 38.515625 48.945312 38.5 48.855469 38.589844 48.761719 C 38.75 48.613281 38.726562 48.234375 38.546875 48.164062 C 38.453125 48.132812 38.234375 48.105469 38.046875 48.105469 L 37.714844 48.105469 Z M 38.570312 48.363281 C 38.644531 48.550781 38.363281 48.792969 38.085938 48.792969 C 37.957031 48.792969 37.910156 48.71875 37.910156 48.5 C 37.910156 48.234375 37.941406 48.203125 38.203125 48.203125 C 38.394531 48.203125 38.53125 48.261719 38.570312 48.363281 Z M 38.570312 48.363281 "/>
<path style=" stroke:none;fill-rule:nonzero;fill:rgb(0%,0%,0%);fill-opacity:1;" d="M 42.777344 48.761719 L 42.761719 49.488281 L 43.230469 49.46875 L 43.699219 49.460938 L 43.285156 49.421875 C 42.890625 49.382812 42.859375 49.359375 42.859375 49.097656 C 42.859375 48.847656 42.898438 48.808594 43.183594 48.761719 L 43.503906 48.726562 L 43.183594 48.71875 C 42.90625 48.695312 42.867188 48.65625 42.828125 48.371094 C 42.804688 48.203125 42.777344 48.375 42.777344 48.761719 Z M 42.777344 48.761719 "/>
<path style=" stroke:none;fill-rule:nonzero;fill:rgb(0%,0%,0%);fill-opacity:1;" d="M 22.546875 48.96875 C 22.613281 48.996094 22.703125 48.984375 22.734375 48.953125 C 22.773438 48.921875 22.710938 48.890625 22.605469 48.90625 C 22.5 48.90625 22.46875 48.9375 22.546875 48.96875 Z M 22.546875 48.96875 "/>
</g>
</svg>
